# xmcd
#
# Track frame offsets: 
#        182
#        12222
#        22237
#        30995
#        47155
#        62830
#        78825
#        88525
#        106217
#        120022
#        129847
#        137222
#        150212
#
# Disc length: 2193 seconds
#
# Revision: 6
# Processed by: cddbd v1.5.2PL0 Copyright (c) Steve Scherf et al.
# Submitted via: ExactAudioCopy v0.99pb5
#
DISCID=8e088f0d
DTITLE=Chickasaw Mudd Puppies - 8 Track Stomp
DYEAR=1991
DGENRE=Indie
TTITLE0=Cicada
TTITLE1=Jambalaya
TTITLE2=Night Time (Ain't Got No Eyes)
TTITLE3=Moving So Fast
TTITLE4=Shannon Loves Biscuit
TTITLE5=Wasp
TTITLE6=Bill
TTITLE7=Oh Yeah
TTITLE8=Cold Blue
TTITLE9=Omaha (Sharpless)
TTITLE10=Superior
TTITLE11=Do You Remember
TTITLE12=Words and Knives
EXTD=
EXTT0=
EXTT1=
EXTT2=
EXTT3=
EXTT4=
EXTT5=
EXTT6=
EXTT7=
EXTT8=
EXTT9=
EXTT10=
EXTT11=
EXTT12=
PLAYORDER=
